<svg xmlns="http://www.w3.org/2000/svg" viewBox="0 0 595.28 595.19"><defs><style>.cls-1{fill:#fff;}</style></defs><g id="individual"><g id="final"><path class="cls-1" d="M520.25,281.77l-21,49.55a29.69,29.69,0,0,1-10.56,12.52q-7.5,5.28-15,5.27t-10.47-5.27q-3-5.31.06-12.52l21-49.55H448.54l-21,49.55q-6.24,14.7-.18,25.24t20.77,10.53h18q15.87,0,25.6-18l-7.63,18h35.76L556,281.77Z"/><path class="cls-1" d="M511.68,259.62h53.73l22.81-53.73H552.46l-15.18,35.76H501.34q-14.61,0-29.66,10.55a69.5,69.5,0,0,0-8.93,7.42Z"/><path class="cls-1" d="M449.41,259.14l7.42-17.49H385.14q-14.77,0-29.78,10.63a72.39,72.39,0,0,0-8.31,6.86Z"/><path class="cls-1" d="M404.26,281.29l-21.24,50a29.69,29.69,0,0,1-10.56,12.52q-7.5,5.28-15,5.27T347,343.79q-3-5.32.12-12.64l21.16-49.86H332.54l-21.16,49.86q-6.24,14.69-.21,25.31t20.72,10.63h18q15.87,0,25.6-18l-23,53.75h35.92L440,281.29Z"/><path class="cls-1" d="M331.59,259.14l22.61-53.25H318.44l-15.18,35.76H267.32q-14.61,0-29.66,10.55a69.56,69.56,0,0,0-8.43,6.94Z"/><path class="cls-1" d="M286.44,281.29l-21.24,50a29.69,29.69,0,0,1-10.56,12.52q-7.5,5.28-15,5.27t-10.47-5.27q-3-5.31.06-12.52l21.23-50H214.72l-21.23,50q-6.24,14.7-.18,25.24t20.77,10.53h18q15.87,0,25.6-18l-7.63,18h35.76l36.42-85.8Z"/><path class="cls-1" d="M215.87,259.14l22.6-53.25H202.72l-15.18,35.76H151.6q-14.61,0-29.66,10.55a70.45,70.45,0,0,0-8.44,6.94Z"/><path class="cls-1" d="M170.72,281.29l-21.24,50a29.69,29.69,0,0,1-10.56,12.52q-7.5,5.28-15,5.27t-10.48-5.27q-3-5.31.07-12.52l21.23-50H99l-21.23,50q-6.24,14.7-.18,25.24t20.76,10.53h18q15.87,0,25.6-18l-7.63,18h35.76l36.42-85.8Z"/><polygon class="cls-1" points="88.65 259.14 96.08 241.65 60.31 241.65 52.88 259.14 88.65 259.14"/><polygon class="cls-1" points="43.48 281.29 7.06 367.09 42.83 367.09 79.25 281.29 43.48 281.29"/></g></g></svg>