<?xml version="1.0" encoding="UTF-8" standalone="no"?>
<svg
   viewBox="0 0 581.15994 196.95"
   version="1.1"
   id="svg97"
   sodipodi:docname="iddqd3 white.svg"
   width="581.15997"
   height="196.95"
   inkscape:version="1.1 (c4e8f9e, 2021-05-24)"
   xmlns:inkscape="http://www.inkscape.org/namespaces/inkscape"
   xmlns:sodipodi="http://sodipodi.sourceforge.net/DTD/sodipodi-0.dtd"
   xmlns="http://www.w3.org/2000/svg"
   xmlns:svg="http://www.w3.org/2000/svg">
  <sodipodi:namedview
     id="namedview99"
     pagecolor="#ffffff"
     bordercolor="#666666"
     borderopacity="1.0"
     inkscape:pageshadow="2"
     inkscape:pageopacity="0.0"
     inkscape:pagecheckerboard="0"
     showgrid="false"
     inkscape:zoom="0.39645209"
     inkscape:cx="288.81169"
     inkscape:cy="89.544237"
     inkscape:window-width="1280"
     inkscape:window-height="667"
     inkscape:window-x="0"
     inkscape:window-y="25"
     inkscape:window-maximized="1"
     inkscape:current-layer="svg97" />
  <defs
     id="defs73">
    <style
       id="style71">.cls-1{fill:#fff;}</style>
  </defs>
  <g
     id="individual"
     transform="translate(-7.06,-205.89)">
    <g
       id="final">
      <path
         class="cls-1"
         d="m 520.25,281.77 -21,49.55 a 29.69,29.69 0 0 1 -10.56,12.52 q -7.5,5.28 -15,5.27 -7.5,-0.01 -10.47,-5.27 -3,-5.31 0.06,-12.52 l 21,-49.55 h -35.74 l -21,49.55 q -6.24,14.7 -0.18,25.24 6.06,10.54 20.77,10.53 h 18 q 15.87,0 25.6,-18 l -7.63,18 h 35.76 L 556,281.77 Z"
         id="path75" />
      <path
         class="cls-1"
         d="m 511.68,259.62 h 53.73 l 22.81,-53.73 h -35.76 l -15.18,35.76 h -35.94 q -14.61,0 -29.66,10.55 a 69.5,69.5 0 0 0 -8.93,7.42 z"
         id="path77" />
      <path
         class="cls-1"
         d="m 449.41,259.14 7.42,-17.49 h -71.69 q -14.77,0 -29.78,10.63 a 72.39,72.39 0 0 0 -8.31,6.86 z"
         id="path79" />
      <path
         class="cls-1"
         d="m 404.26,281.29 -21.24,50 a 29.69,29.69 0 0 1 -10.56,12.52 q -7.5,5.28 -15,5.27 -7.5,-0.01 -10.46,-5.29 -3,-5.32 0.12,-12.64 l 21.16,-49.86 h -35.74 l -21.16,49.86 q -6.24,14.69 -0.21,25.31 6.03,10.62 20.72,10.63 h 18 q 15.87,0 25.6,-18 l -23,53.75 h 35.92 L 440,281.29 Z"
         id="path81" />
      <path
         class="cls-1"
         d="m 331.59,259.14 22.61,-53.25 h -35.76 l -15.18,35.76 h -35.94 q -14.61,0 -29.66,10.55 a 69.56,69.56 0 0 0 -8.43,6.94 z"
         id="path83" />
      <path
         class="cls-1"
         d="m 286.44,281.29 -21.24,50 a 29.69,29.69 0 0 1 -10.56,12.52 q -7.5,5.28 -15,5.27 -7.5,-0.01 -10.47,-5.27 -3,-5.31 0.06,-12.52 l 21.23,-50 h -35.74 l -21.23,50 q -6.24,14.7 -0.18,25.24 6.06,10.54 20.77,10.53 h 18 q 15.87,0 25.6,-18 l -7.63,18 h 35.76 l 36.42,-85.8 z"
         id="path85" />
      <path
         class="cls-1"
         d="m 215.87,259.14 22.6,-53.25 h -35.75 l -15.18,35.76 H 151.6 q -14.61,0 -29.66,10.55 a 70.45,70.45 0 0 0 -8.44,6.94 z"
         id="path87" />
      <path
         class="cls-1"
         d="m 170.72,281.29 -21.24,50 a 29.69,29.69 0 0 1 -10.56,12.52 q -7.5,5.28 -15,5.27 -7.5,-0.01 -10.48,-5.27 -3,-5.31 0.07,-12.52 l 21.23,-50 H 99 l -21.23,50 q -6.24,14.7 -0.18,25.24 6.06,10.54 20.76,10.53 h 18 q 15.87,0 25.6,-18 l -7.63,18 h 35.76 l 36.42,-85.8 z"
         id="path89" />
      <polygon
         class="cls-1"
         points="60.31,241.65 52.88,259.14 88.65,259.14 96.08,241.65 "
         id="polygon91" />
      <polygon
         class="cls-1"
         points="42.83,367.09 79.25,281.29 43.48,281.29 7.06,367.09 "
         id="polygon93" />
    </g>
  </g>
</svg>
